<svg xmlns="http://www.w3.org/2000/svg" xmlns:xlink="http://www.w3.org/1999/xlink"><symbol id="icon-arrow-left" viewBox="0 0 474 238"><path stroke="#6DA5CD" stroke-width="3" d="M80.656 22L5.453 112.443C3.286 115.049 5.139 119 8.528 119H116M84 81v84M386.656 22l-75.203 90.443c-2.167 2.606-.314 6.557 3.075 6.557H422M390 79v84"/><path stroke="#F5A0B5" stroke-miterlimit="10" stroke-width="2" d="M448.948 174.273c-39.563 39.294-78.634 38.211-105.136 19.398-26.502-18.813-44.589-35.317-57.626-33.752-13.001 1.444-45.621 19.493-72.722-7.302-27.101-26.796-29.229-43.178-18.611-51.961 10.617-8.782 24.994 6.455 40.698 15.62 15.667 9.286 22.897 24.981 17.059 29.805-5.922 4.667-36.38-1.211-47.504-22.327-11.124-21.117-17.436-38.514-8.343-47.498 9.093-8.985 24.989-12.98 49.51 4.962 24.521 17.943 32.092 37.708 25.723 42.106-6.331 4.277-22.081 1.311-34.918-16.364-12.838-17.674-25.255-50.555-16.827-57.363 8.428-6.808 34.034-6.248 48.362 13.469 14.328 19.717 14.544 54.021-4.684 76.695-19.229 22.673-66.351 44.483-82.262 6.171-15.912-38.311-2.156-92.8 29.503-107.705 31.659-14.906 62.801 5.59 58.819 41.52-3.945 35.808-35.985 72.277-63.253 78.876-27.267 6.599-53.843-.736-54.272-40.394-.43-39.658 19.848-84.35 51.647-93.662 31.798-9.31 56.803 8.78 47.403 45.564-9.399 36.784-38.194 57.457-59.049 69.454-20.854 11.997-59.241 5.677-58.586-35.368.656-41.044 20.542-64.574 42.176-77.39 17.493-10.514 40.187-6.482 54.196.447"/></symbol></svg>